<svg width="12" height="12" viewBox="0 0 12 12" fill="none" xmlns="http://www.w3.org/2000/svg">
<g clip-path="url(#clip0_10003_3584)">
<path d="M2 3.5C2 3.23478 2.10536 2.98043 2.29289 2.79289C2.48043 2.60536 2.73478 2.5 3 2.5H9C9.26522 2.5 9.51957 2.60536 9.70711 2.79289C9.89464 2.98043 10 3.23478 10 3.5V9.5C10 9.76522 9.89464 10.0196 9.70711 10.2071C9.51957 10.3946 9.26522 10.5 9 10.5H3C2.73478 10.5 2.48043 10.3946 2.29289 10.2071C2.10536 10.0196 2 9.76522 2 9.5V3.5Z" stroke="#263238" stroke-width="0.75" stroke-linecap="round" stroke-linejoin="round"/>
<path d="M8 1.5V3.5" stroke="#263238" stroke-width="0.75" stroke-linecap="round" stroke-linejoin="round"/>
<path d="M4 1.5V3.5" stroke="#263238" stroke-width="0.75" stroke-linecap="round" stroke-linejoin="round"/>
<path d="M2 5.5H10" stroke="#263238" stroke-width="0.75" stroke-linecap="round" stroke-linejoin="round"/>
<path d="M5.5 7.5H6" stroke="#263238" stroke-width="0.75" stroke-linecap="round" stroke-linejoin="round"/>
<path d="M6 7.5V9" stroke="#263238" stroke-width="0.75" stroke-linecap="round" stroke-linejoin="round"/>
</g>
<defs>
<clipPath id="clip0_10003_3584">
<rect width="12" height="12" fill="white"/>
</clipPath>
</defs>
</svg>
